<?xml version="1.0" encoding="utf-8"?>
<!-- Generator: Adobe Illustrator 16.0.0, SVG Export Plug-In . SVG Version: 6.00 Build 0)  -->
<!DOCTYPE svg PUBLIC "-//W3C//DTD SVG 1.1//EN" "http://www.w3.org/Graphics/SVG/1.1/DTD/svg11.dtd">
<svg version="1.1" xmlns="http://www.w3.org/2000/svg" xmlns:xlink="http://www.w3.org/1999/xlink" x="0px" y="0px" width="357px"
	 height="149.999px" viewBox="0 0 357 149.999" enable-background="new 0 0 357 149.999" xml:space="preserve">
<g id="Calque_1">
	<g>
		<rect x="-3.295" y="27.342" fill="none" width="510.126" height="39.24"/>
		<path d="M8.504,66.641c-2.867-0.067-4.9-0.683-6.1-1.85c-1.2-1.167-1.8-2.983-1.8-5.45v-31.2l4.65-0.8v31.25
			c0,0.767,0.066,1.4,0.2,1.9c0.133,0.5,0.35,0.9,0.65,1.2c0.3,0.3,0.7,0.525,1.2,0.675s1.116,0.275,1.85,0.375L8.504,66.641z"/>
		<path d="M12.904,53.191c0-2.3,0.333-4.308,1-6.025c0.667-1.716,1.55-3.141,2.65-4.275c1.1-1.133,2.366-1.983,3.8-2.55
			c1.433-0.566,2.9-0.85,4.4-0.85c3.5,0,6.183,1.092,8.05,3.275c1.866,2.184,2.8,5.509,2.8,9.975c0,0.2,0,0.458,0,0.775
			c0,0.317-0.017,0.608-0.05,0.875h-17.8c0.2,2.7,0.983,4.75,2.35,6.15c1.366,1.4,3.5,2.1,6.4,2.1c1.633,0,3.008-0.142,4.125-0.425
			c1.117-0.283,1.958-0.558,2.525-0.825l0.65,3.9c-0.567,0.3-1.559,0.617-2.975,0.95c-1.417,0.333-3.025,0.5-4.825,0.5
			c-2.267,0-4.225-0.342-5.875-1.025c-1.65-0.683-3.008-1.625-4.075-2.825c-1.067-1.2-1.859-2.625-2.375-4.275
			C13.162,56.966,12.904,55.158,12.904,53.191z M30.754,50.641c0.033-2.1-0.492-3.825-1.575-5.175
			c-1.084-1.35-2.575-2.025-4.475-2.025c-1.067,0-2.009,0.209-2.825,0.625c-0.817,0.417-1.508,0.959-2.075,1.625
			c-0.567,0.667-1.009,1.434-1.325,2.3c-0.317,0.867-0.525,1.75-0.625,2.65H30.754z"/>
		<path d="M48.354,62.791c1.9,0,3.308-0.25,4.225-0.75c0.917-0.5,1.375-1.3,1.375-2.4c0-1.133-0.45-2.033-1.35-2.7
			c-0.9-0.666-2.383-1.416-4.45-2.25c-1-0.4-1.958-0.808-2.875-1.225c-0.917-0.417-1.708-0.908-2.375-1.475
			c-0.667-0.566-1.2-1.25-1.6-2.05c-0.4-0.8-0.6-1.783-0.6-2.95c0-2.3,0.85-4.125,2.55-5.475c1.7-1.35,4.016-2.025,6.95-2.025
			c0.733,0,1.466,0.042,2.2,0.125c0.733,0.083,1.417,0.184,2.05,0.3c0.633,0.117,1.191,0.242,1.675,0.375
			c0.482,0.134,0.857,0.25,1.125,0.35l-0.85,4c-0.5-0.267-1.284-0.542-2.35-0.825c-1.067-0.283-2.35-0.425-3.85-0.425
			c-1.3,0-2.434,0.259-3.4,0.775c-0.967,0.517-1.45,1.325-1.45,2.425c0,0.567,0.108,1.067,0.325,1.5c0.216,0.434,0.55,0.825,1,1.175
			s1.008,0.675,1.675,0.975c0.667,0.3,1.467,0.617,2.4,0.95c1.232,0.467,2.333,0.925,3.3,1.375c0.966,0.45,1.792,0.975,2.475,1.575
			c0.683,0.6,1.208,1.325,1.575,2.175c0.367,0.85,0.55,1.893,0.55,3.125c0,2.4-0.892,4.217-2.675,5.45
			c-1.783,1.233-4.325,1.85-7.625,1.85c-2.3,0-4.1-0.192-5.4-0.575c-1.3-0.383-2.184-0.675-2.65-0.875l0.85-4
			c0.533,0.2,1.383,0.5,2.55,0.9C44.871,62.591,46.42,62.791,48.354,62.791z"/>
		<path d="M86.303,27.341c1.167,0,2.167,0.075,3,0.225c0.833,0.15,1.433,0.292,1.8,0.425l-0.65,4
			c-0.367-0.133-0.867-0.275-1.5-0.425c-0.633-0.15-1.4-0.225-2.3-0.225c-2.167,0-3.684,0.592-4.55,1.775
			c-0.867,1.184-1.3,2.775-1.3,4.775v2.25h10v3.9h-10v22.1h-4.65v-28.35c0-3.333,0.816-5.908,2.45-7.725
			C80.236,28.25,82.803,27.341,86.303,27.341z M97.953,35.441c-0.833,0-1.542-0.275-2.125-0.825
			c-0.583-0.55-0.875-1.292-0.875-2.225c0-0.933,0.292-1.675,0.875-2.225c0.583-0.55,1.292-0.825,2.125-0.825
			c0.833,0,1.542,0.275,2.125,0.825c0.583,0.55,0.875,1.292,0.875,2.225c0,0.934-0.292,1.675-0.875,2.225
			C99.495,35.166,98.786,35.441,97.953,35.441z M100.303,66.141h-4.65v-26h4.65V66.141z"/>
		<path d="M116.103,66.641c-2.867-0.067-4.9-0.683-6.1-1.85c-1.2-1.167-1.8-2.983-1.8-5.45v-31.2l4.65-0.8v31.25
			c0,0.767,0.066,1.4,0.2,1.9c0.133,0.5,0.35,0.9,0.65,1.2c0.3,0.3,0.7,0.525,1.2,0.675s1.116,0.275,1.85,0.375L116.103,66.641z"/>
		<path d="M121.953,40.891c1.066-0.267,2.475-0.55,4.225-0.85c1.75-0.3,3.775-0.45,6.075-0.45c1.667,0,3.066,0.225,4.2,0.675
			c1.133,0.45,2.083,1.108,2.85,1.975c0.233-0.167,0.6-0.4,1.1-0.7c0.5-0.3,1.116-0.591,1.85-0.875
			c0.733-0.283,1.55-0.533,2.45-0.75c0.9-0.216,1.866-0.325,2.9-0.325c2,0,3.633,0.292,4.9,0.875
			c1.267,0.583,2.258,1.408,2.975,2.475c0.716,1.067,1.2,2.334,1.45,3.8c0.25,1.467,0.375,3.067,0.375,4.8v14.6h-4.65v-13.6
			c0-1.533-0.075-2.85-0.225-3.95c-0.15-1.1-0.434-2.017-0.85-2.75c-0.417-0.733-0.983-1.275-1.7-1.625
			c-0.717-0.35-1.642-0.525-2.775-0.525c-1.567,0-2.858,0.209-3.875,0.625c-1.017,0.417-1.708,0.792-2.075,1.125
			c0.266,0.867,0.466,1.817,0.6,2.85c0.133,1.034,0.2,2.117,0.2,3.25v14.6h-4.65v-13.6c0-1.533-0.083-2.85-0.25-3.95
			c-0.167-1.1-0.458-2.017-0.875-2.75c-0.417-0.733-0.984-1.275-1.7-1.625c-0.717-0.35-1.625-0.525-2.725-0.525
			c-0.467,0-0.967,0.018-1.5,0.05c-0.533,0.034-1.042,0.075-1.525,0.125c-0.483,0.05-0.925,0.108-1.325,0.175
			c-0.4,0.067-0.667,0.117-0.8,0.15v21.95h-4.65V40.891z"/>
		<path d="M171.052,62.791c1.9,0,3.308-0.25,4.225-0.75c0.917-0.5,1.375-1.3,1.375-2.4c0-1.133-0.45-2.033-1.35-2.7
			c-0.9-0.666-2.383-1.416-4.45-2.25c-1-0.4-1.958-0.808-2.875-1.225c-0.917-0.417-1.708-0.908-2.375-1.475
			c-0.667-0.566-1.2-1.25-1.6-2.05c-0.4-0.8-0.6-1.783-0.6-2.95c0-2.3,0.85-4.125,2.55-5.475c1.7-1.35,4.016-2.025,6.95-2.025
			c0.733,0,1.466,0.042,2.2,0.125c0.733,0.083,1.417,0.184,2.05,0.3c0.633,0.117,1.191,0.242,1.675,0.375
			c0.482,0.134,0.857,0.25,1.125,0.35l-0.85,4c-0.5-0.267-1.284-0.542-2.35-0.825c-1.067-0.283-2.35-0.425-3.85-0.425
			c-1.3,0-2.434,0.259-3.4,0.775c-0.967,0.517-1.45,1.325-1.45,2.425c0,0.567,0.108,1.067,0.325,1.5c0.216,0.434,0.55,0.825,1,1.175
			s1.008,0.675,1.675,0.975c0.667,0.3,1.467,0.617,2.4,0.95c1.232,0.467,2.333,0.925,3.3,1.375c0.966,0.45,1.792,0.975,2.475,1.575
			c0.683,0.6,1.208,1.325,1.575,2.175c0.367,0.85,0.55,1.893,0.55,3.125c0,2.4-0.892,4.217-2.675,5.45
			c-1.783,1.233-4.325,1.85-7.625,1.85c-2.3,0-4.1-0.192-5.4-0.575c-1.3-0.383-2.184-0.675-2.65-0.875l0.85-4
			c0.533,0.2,1.383,0.5,2.55,0.9C167.569,62.591,169.119,62.791,171.052,62.791z"/>
		<path d="M215.651,28.141l4.65-0.8v38.05c-1.067,0.3-2.434,0.6-4.1,0.9c-1.667,0.3-3.583,0.45-5.75,0.45c-2,0-3.8-0.317-5.4-0.95
			c-1.6-0.633-2.967-1.533-4.1-2.7c-1.134-1.167-2.009-2.592-2.625-4.275c-0.617-1.683-0.925-3.575-0.925-5.675
			c0-2,0.258-3.833,0.775-5.5c0.516-1.667,1.275-3.1,2.275-4.3c1-1.2,2.225-2.133,3.675-2.8c1.45-0.667,3.108-1,4.975-1
			c1.5,0,2.825,0.2,3.975,0.6s2.008,0.784,2.575,1.15V28.141z M215.651,45.641c-0.567-0.466-1.383-0.917-2.45-1.35
			c-1.067-0.433-2.234-0.65-3.5-0.65c-1.333,0-2.475,0.242-3.425,0.725c-0.95,0.483-1.725,1.15-2.325,2s-1.034,1.858-1.3,3.025
			c-0.267,1.167-0.4,2.417-0.4,3.75c0,3.034,0.75,5.375,2.25,7.025s3.5,2.475,6,2.475c1.267,0,2.325-0.058,3.175-0.175
			c0.85-0.117,1.508-0.242,1.975-0.375V45.641z"/>
		<path d="M226.851,53.191c0-2.3,0.333-4.308,1-6.025c0.667-1.716,1.55-3.141,2.65-4.275c1.1-1.133,2.366-1.983,3.8-2.55
			c1.433-0.566,2.9-0.85,4.4-0.85c3.5,0,6.183,1.092,8.05,3.275c1.866,2.184,2.8,5.509,2.8,9.975c0,0.2,0,0.458,0,0.775
			c0,0.317-0.017,0.608-0.05,0.875h-17.8c0.2,2.7,0.983,4.75,2.35,6.15c1.366,1.4,3.5,2.1,6.4,2.1c1.633,0,3.008-0.142,4.125-0.425
			c1.117-0.283,1.958-0.558,2.525-0.825l0.65,3.9c-0.567,0.3-1.559,0.617-2.975,0.95c-1.417,0.333-3.025,0.5-4.825,0.5
			c-2.267,0-4.225-0.342-5.875-1.025c-1.65-0.683-3.008-1.625-4.075-2.825c-1.067-1.2-1.859-2.625-2.375-4.275
			C227.109,56.966,226.851,55.158,226.851,53.191z M244.701,50.641c0.033-2.1-0.492-3.825-1.575-5.175
			c-1.084-1.35-2.575-2.025-4.475-2.025c-1.067,0-2.009,0.209-2.825,0.625c-0.817,0.417-1.508,0.959-2.075,1.625
			c-0.567,0.667-1.009,1.434-1.325,2.3c-0.317,0.867-0.525,1.75-0.625,2.65H244.701z"/>
	</g>
	<g display="none">
		<rect x="71.363" y="82.404" display="inline" fill="none" width="436.709" height="149.367"/>
		<path display="inline" d="M89,102.263c1.959-1.321,4.192-1.982,6.699-1.982c2.483,0,4.711,0.672,6.682,2.017
			c1.971,1.345,3.521,3.327,4.648,5.947c1.128,2.621,1.692,5.754,1.692,9.399c0,3.578-0.57,6.933-1.709,10.066
			c-1.14,3.133-2.911,5.68-5.315,7.639c-2.404,1.959-5.406,2.939-9.006,2.939c-1.777,0-3.39-0.348-4.836-1.042
			c-1.447-0.695-2.569-1.612-3.367-2.751v8.955c0,1.891,0.558,3.207,1.675,3.948c1.116,0.74,2.803,1.111,5.059,1.111v1.47
			c-0.593-0.023-1.92-0.08-3.982-0.171c-2.063-0.091-4.096-0.137-6.101-0.137c-1.481,0-3.008,0.045-4.58,0.137
			c-1.572,0.091-2.563,0.148-2.974,0.171v-1.47c1.709,0,2.905-0.313,3.589-0.94c0.684-0.627,1.025-1.76,1.025-3.401v-35.273
			c0-2.165-0.393-3.737-1.179-4.717c-0.786-0.979-2.17-1.47-4.153-1.47v-1.47c1.458,0.137,2.905,0.205,4.341,0.205
			c2.962,0,5.389-0.319,7.28-0.957v7.383C85.536,105.453,87.04,103.584,89,102.263z M87.393,135.468
			c1.253,0.809,2.757,1.213,4.512,1.213c6.676,0,10.015-6.027,10.015-18.081c0-10.823-2.712-16.235-8.135-16.235
			c-2.119,0-4.016,0.758-5.691,2.273c-1.675,1.516-2.877,3.708-3.606,6.58v20.952C85.171,133.56,86.14,134.66,87.393,135.468z"/>
		<path display="inline" d="M125.691,133.845c0.353,0.729,0.911,1.242,1.675,1.538c0.763,0.296,1.806,0.444,3.127,0.444v1.47
			c-4.284-0.182-7.109-0.273-8.477-0.273s-4.193,0.091-8.477,0.273v-1.47c1.321,0,2.364-0.148,3.127-0.444
			c0.763-0.296,1.321-0.809,1.675-1.538c0.353-0.729,0.53-1.743,0.53-3.042v-39.99c0-2.165-0.393-3.731-1.179-4.7
			c-0.786-0.968-2.17-1.453-4.153-1.453v-1.47c1.458,0.137,2.905,0.205,4.341,0.205c3.008,0,5.435-0.33,7.28-0.991v48.398
			C125.162,132.102,125.338,133.116,125.691,133.845z"/>
		<path display="inline" d="M161.136,133.486c-1.196,1.424-2.689,2.581-4.478,3.469c-1.789,0.889-3.789,1.333-5.999,1.333
			c-3.327,0-6.204-0.758-8.63-2.273s-4.278-3.646-5.554-6.392c-1.276-2.746-1.914-5.907-1.914-9.485
			c0-4.056,0.649-7.576,1.948-10.562c1.299-2.985,3.139-5.281,5.52-6.887c2.381-1.606,5.167-2.41,8.357-2.41
			c4.192,0,7.422,1.271,9.69,3.811c2.267,2.541,3.401,6.397,3.401,11.57h-21.875c-0.16,1.208-0.239,2.7-0.239,4.478
			c0,3.076,0.507,5.765,1.521,8.066c1.014,2.302,2.341,4.067,3.982,5.298s3.372,1.846,5.195,1.846c4.694,0,8.123-2.335,10.288-7.007
			l1.401,0.547C163.204,130.529,162.332,132.062,161.136,133.486z M156.163,107.937c-0.479-1.937-1.23-3.475-2.256-4.614
			c-1.025-1.139-2.29-1.709-3.794-1.709c-1.436,0-2.757,0.461-3.965,1.384c-1.208,0.923-2.228,2.336-3.059,4.238
			c-0.832,1.903-1.362,4.267-1.589,7.092h15.244C156.834,112.004,156.641,109.874,156.163,107.937z"/>
		<path display="inline" d="M180.926,133.845c0.353,0.729,0.911,1.242,1.675,1.538c0.763,0.296,1.806,0.444,3.127,0.444v1.47
			c-4.284-0.182-7.109-0.273-8.477-0.273s-4.193,0.091-8.477,0.273v-1.47c1.321,0,2.364-0.148,3.127-0.444
			c0.763-0.296,1.321-0.809,1.675-1.538c0.353-0.729,0.53-1.743,0.53-3.042v-21.909c0-2.165-0.393-3.737-1.179-4.717
			c-0.786-0.979-2.17-1.47-4.153-1.47v-1.47c1.458,0.137,2.905,0.205,4.341,0.205c2.962,0,5.389-0.319,7.28-0.957v30.317
			C180.396,132.102,180.572,133.116,180.926,133.845z M178.995,84.353c0.684,0.41,1.23,0.957,1.641,1.641s0.615,1.424,0.615,2.222
			c0,0.798-0.205,1.544-0.615,2.239c-0.41,0.695-0.957,1.242-1.641,1.641c-0.684,0.399-1.424,0.598-2.222,0.598
			c-0.798,0-1.544-0.199-2.239-0.598c-0.695-0.398-1.242-0.945-1.641-1.641c-0.399-0.695-0.598-1.441-0.598-2.239
			c0-0.797,0.199-1.538,0.598-2.222c0.398-0.684,0.945-1.23,1.641-1.641c0.695-0.41,1.441-0.615,2.239-0.615
			C177.57,83.737,178.311,83.942,178.995,84.353z"/>
		<path display="inline" d="M205.774,102.28c2.085-1.333,4.438-2,7.058-2c3.258,0,5.73,0.877,7.417,2.632
			c0.866,0.957,1.487,2.136,1.863,3.538s0.564,3.287,0.564,5.657v18.696c0,1.299,0.176,2.313,0.53,3.042
			c0.353,0.729,0.911,1.242,1.675,1.538c0.763,0.296,1.806,0.444,3.127,0.444v1.47c-4.284-0.182-7.087-0.273-8.408-0.273
			c-1.299,0-3.908,0.091-7.827,0.273v-1.47c1.162,0,2.068-0.148,2.717-0.444c0.649-0.296,1.128-0.809,1.436-1.538
			c0.308-0.729,0.461-1.743,0.461-3.042v-20.234c0-1.686-0.131-3.099-0.393-4.238c-0.262-1.139-0.809-2.062-1.641-2.769
			c-0.832-0.706-2.045-1.06-3.64-1.06c-1.914,0-3.618,0.559-5.11,1.675c-1.493,1.117-2.649,2.649-3.469,4.597
			s-1.23,4.107-1.23,6.477v15.552c0,1.299,0.154,2.313,0.461,3.042c0.308,0.729,0.792,1.242,1.453,1.538
			c0.661,0.296,1.572,0.444,2.734,0.444v1.47c-3.919-0.182-6.54-0.273-7.861-0.273c-1.322,0-4.125,0.091-8.408,0.273v-1.47
			c1.321,0,2.364-0.148,3.127-0.444c0.763-0.296,1.321-0.809,1.675-1.538c0.353-0.729,0.53-1.743,0.53-3.042v-21.909
			c0-2.165-0.393-3.737-1.179-4.717c-0.786-0.979-2.17-1.47-4.153-1.47v-1.47c1.458,0.137,2.905,0.205,4.341,0.205
			c2.962,0,5.389-0.319,7.28-0.957v8.237C202.066,105.761,203.689,103.613,205.774,102.28z"/>
		<path display="inline" d="M267.195,103.168c-1.128-0.991-2.729-1.487-4.802-1.487c-3.304,0-5.617,0.832-6.938,2.495
			c0.934,0.228,1.714,0.724,2.341,1.487c0.626,0.764,0.94,1.692,0.94,2.786c0,1.185-0.371,2.114-1.111,2.786
			c-0.741,0.672-1.738,1.008-2.991,1.008c-1.185,0-2.114-0.398-2.786-1.196c-0.672-0.797-1.008-1.846-1.008-3.145
			c0-1.823,1.094-3.486,3.281-4.99c1.139-0.752,2.546-1.378,4.221-1.88c1.675-0.501,3.538-0.752,5.588-0.752
			c1.914,0,3.6,0.234,5.059,0.701c1.458,0.467,2.598,1.111,3.418,1.931c1.071,1.094,1.806,2.364,2.205,3.811
			c0.398,1.447,0.598,3.447,0.598,5.999v19.448c0,1.162,0.165,2.005,0.496,2.529c0.33,0.524,0.883,0.786,1.658,0.786
			c0.569,0,1.094-0.125,1.572-0.376c0.479-0.25,1.002-0.615,1.572-1.094l0.786,1.196c-0.82,0.615-1.504,1.094-2.051,1.436
			s-1.174,0.615-1.88,0.82c-0.707,0.205-1.527,0.308-2.461,0.308c-2.256,0-3.823-0.564-4.7-1.692
			c-0.877-1.128-1.316-2.637-1.316-4.529c-1.367,2.256-3.008,3.857-4.922,4.802s-3.862,1.418-5.845,1.418
			c-1.618,0-3.099-0.279-4.443-0.837c-1.345-0.558-2.421-1.424-3.23-2.598c-0.809-1.173-1.213-2.637-1.213-4.392
			c0-1.777,0.433-3.292,1.299-4.546c0.866-1.253,2.085-2.353,3.657-3.298c1.572-0.945,3.68-1.977,6.323-3.093
			c0.456-0.182,1.572-0.638,3.35-1.367c1.777-0.729,3.059-1.458,3.845-2.188c0.786-0.729,1.179-1.526,1.179-2.393v-4.341
			C268.887,106.011,268.323,104.16,267.195,103.168z M267.178,117.404c-0.798,0.456-2.461,1.299-4.99,2.529
			c-1.345,0.638-2.484,1.293-3.418,1.965c-0.935,0.672-1.732,1.578-2.393,2.717c-0.661,1.14-0.991,2.541-0.991,4.204
			c0,2.028,0.513,3.561,1.538,4.597c1.025,1.037,2.381,1.555,4.067,1.555c3.099,0,5.73-1.766,7.896-5.298v-13.74
			C268.545,116.459,267.976,116.949,267.178,117.404z"/>
		<path display="inline" d="M295.53,133.845c0.354,0.729,0.912,1.242,1.676,1.538c0.763,0.296,1.805,0.444,3.127,0.444v1.47
			c-4.284-0.182-7.109-0.273-8.477-0.273s-4.193,0.091-8.477,0.273v-1.47c1.321,0,2.364-0.148,3.127-0.444
			c0.763-0.296,1.321-0.809,1.675-1.538c0.353-0.729,0.53-1.743,0.53-3.042v-21.909c0-2.165-0.393-3.737-1.179-4.717
			c-0.786-0.979-2.17-1.47-4.153-1.47v-1.47c1.458,0.137,2.905,0.205,4.341,0.205c2.962,0,5.389-0.319,7.28-0.957v30.317
			C295,132.102,295.176,133.116,295.53,133.845z M293.599,84.353c0.684,0.41,1.23,0.957,1.641,1.641s0.615,1.424,0.615,2.222
			c0,0.798-0.205,1.544-0.615,2.239c-0.41,0.695-0.957,1.242-1.641,1.641c-0.684,0.399-1.424,0.598-2.222,0.598
			c-0.798,0-1.544-0.199-2.239-0.598c-0.695-0.398-1.242-0.945-1.641-1.641c-0.399-0.695-0.598-1.441-0.598-2.239
			c0-0.797,0.199-1.538,0.598-2.222c0.398-0.684,0.945-1.23,1.641-1.641c0.695-0.41,1.441-0.615,2.239-0.615
			C292.175,83.737,292.916,83.942,293.599,84.353z"/>
		<path display="inline" d="M317.782,104.997c0.99-1.367,2.17-2.495,3.537-3.384s2.814-1.333,4.341-1.333
			c1.23,0,2.329,0.245,3.298,0.735c0.969,0.49,1.727,1.157,2.273,2c0.547,0.843,0.82,1.766,0.82,2.769
			c0,1.23-0.365,2.273-1.094,3.127c-0.729,0.854-1.697,1.282-2.905,1.282c-1.025,0-1.903-0.325-2.632-0.974
			c-0.729-0.649-1.094-1.532-1.094-2.649c0-1.526,0.797-2.791,2.393-3.794c-0.319-0.456-0.809-0.684-1.47-0.684
			c-1.846,0-3.509,0.707-4.99,2.119c-1.481,1.413-2.644,3.156-3.486,5.229c-0.843,2.074-1.265,4.011-1.265,5.811v14.834
			c0,2.165,0.615,3.663,1.846,4.495c1.23,0.832,3.088,1.248,5.571,1.248v1.47c-5.742-0.182-9.331-0.273-10.767-0.273
			c-1.23,0-3.988,0.091-8.271,0.273v-1.47c1.321,0,2.363-0.148,3.127-0.444c0.764-0.296,1.322-0.809,1.676-1.538
			c0.353-0.729,0.529-1.743,0.529-3.042v-21.909c0-2.165-0.393-3.737-1.18-4.717c-0.785-0.979-2.17-1.47-4.152-1.47v-1.47
			c1.458,0.137,2.905,0.205,4.341,0.205c2.962,0,5.389-0.319,7.28-0.957v8.75C316.032,107.777,316.79,106.364,317.782,104.997z"/>
	</g>
	<g>
		<rect x="71.363" y="82.404" fill="none" width="436.709" height="149.367"/>
		<path d="M109.023,118.593c0,2.754-0.362,5.297-1.085,7.63c-0.724,2.334-1.785,4.34-3.185,6.02s-3.115,2.987-5.145,3.92
			c-2.03,0.933-4.352,1.4-6.965,1.4c-2.1,0-3.955-0.28-5.565-0.84c-1.61-0.56-2.812-1.096-3.605-1.61v14.56h-6.51v-48.23
			c1.54-0.373,3.465-0.781,5.775-1.225c2.31-0.443,4.981-0.665,8.015-0.665c2.8,0,5.32,0.444,7.56,1.33
			c2.24,0.887,4.153,2.147,5.74,3.78c1.586,1.634,2.811,3.629,3.675,5.985C108.591,113.005,109.023,115.653,109.023,118.593z
			 M102.233,118.593c0-4.246-1.05-7.513-3.15-9.8c-2.1-2.286-4.9-3.43-8.4-3.43c-1.96,0-3.489,0.07-4.585,0.21
			c-1.097,0.14-1.972,0.304-2.625,0.49v22.96c0.793,0.654,1.936,1.284,3.43,1.89c1.493,0.607,3.126,0.91,4.9,0.91
			c1.866,0,3.465-0.338,4.795-1.015c1.33-0.676,2.415-1.61,3.255-2.8c0.84-1.19,1.446-2.59,1.82-4.2
			C102.046,122.198,102.233,120.46,102.233,118.593z"/>
		<path d="M129.112,137.423c-4.014-0.094-6.86-0.956-8.54-2.59c-1.68-1.633-2.52-4.176-2.52-7.63v-43.68l6.51-1.12v43.75
			c0,1.074,0.093,1.96,0.28,2.66c0.186,0.7,0.49,1.26,0.91,1.68s0.98,0.735,1.68,0.945c0.7,0.21,1.563,0.385,2.59,0.525
			L129.112,137.423z"/>
		<path d="M135.272,118.593c0-3.22,0.466-6.031,1.4-8.435c0.933-2.403,2.17-4.398,3.71-5.985c1.54-1.586,3.313-2.776,5.32-3.57
			c2.006-0.793,4.06-1.19,6.16-1.19c4.9,0,8.656,1.529,11.27,4.585c2.613,3.057,3.92,7.712,3.92,13.965c0,0.28,0,0.642,0,1.085
			c0,0.444-0.024,0.852-0.07,1.225h-24.92c0.28,3.78,1.376,6.65,3.29,8.61c1.913,1.96,4.9,2.94,8.96,2.94
			c2.286,0,4.211-0.198,5.775-0.595c1.563-0.396,2.741-0.781,3.535-1.155l0.91,5.46c-0.794,0.42-2.182,0.864-4.165,1.33
			c-1.984,0.466-4.235,0.7-6.755,0.7c-3.174,0-5.915-0.479-8.225-1.435c-2.31-0.956-4.212-2.275-5.705-3.955
			c-1.494-1.68-2.602-3.675-3.325-5.985C135.633,123.878,135.272,121.347,135.272,118.593z M160.262,115.023
			c0.046-2.94-0.689-5.355-2.205-7.245c-1.517-1.89-3.605-2.835-6.265-2.835c-1.494,0-2.812,0.292-3.955,0.875
			c-1.144,0.584-2.112,1.342-2.905,2.275c-0.794,0.934-1.412,2.007-1.855,3.22c-0.444,1.214-0.735,2.45-0.875,3.71H160.262z"/>
		<path d="M179.651,93.743c-1.167,0-2.159-0.385-2.975-1.155c-0.817-0.77-1.225-1.808-1.225-3.115c0-1.306,0.408-2.345,1.225-3.115
			c0.816-0.77,1.808-1.155,2.975-1.155c1.166,0,2.158,0.385,2.975,1.155c0.816,0.77,1.225,1.809,1.225,3.115
			c0,1.307-0.409,2.345-1.225,3.115C181.81,93.358,180.817,93.743,179.651,93.743z M182.941,136.723h-6.51v-36.4h6.51V136.723z"/>
		<path d="M194.141,101.373c1.493-0.373,3.476-0.77,5.95-1.19c2.473-0.42,5.32-0.63,8.54-0.63c2.893,0,5.296,0.409,7.21,1.225
			c1.913,0.817,3.441,1.96,4.585,3.43c1.143,1.47,1.948,3.232,2.415,5.285c0.466,2.054,0.7,4.317,0.7,6.79v20.44h-6.51v-19.04
			c0-2.24-0.152-4.153-0.455-5.74c-0.304-1.586-0.805-2.87-1.505-3.85c-0.7-0.98-1.634-1.691-2.8-2.135
			c-1.167-0.443-2.614-0.665-4.34-0.665c-0.7,0-1.424,0.024-2.17,0.07c-0.747,0.047-1.459,0.105-2.135,0.175
			c-0.677,0.07-1.284,0.152-1.82,0.245c-0.537,0.094-0.922,0.164-1.155,0.21v30.73h-6.51V101.373z"/>
		<path d="M262.249,99.413c2.613,0,4.818,0.339,6.615,1.015c1.796,0.677,3.243,1.634,4.34,2.87c1.096,1.237,1.878,2.707,2.345,4.41
			c0.466,1.704,0.7,3.582,0.7,5.635v22.75c-0.56,0.094-1.342,0.222-2.345,0.385c-1.004,0.164-2.135,0.315-3.395,0.455
			c-1.26,0.14-2.625,0.268-4.095,0.385c-1.47,0.116-2.929,0.175-4.375,0.175c-2.054,0-3.944-0.21-5.67-0.63
			c-1.727-0.42-3.22-1.085-4.48-1.995s-2.24-2.111-2.94-3.605c-0.7-1.493-1.05-3.29-1.05-5.39c0-2.006,0.408-3.733,1.225-5.18
			c0.816-1.446,1.925-2.613,3.325-3.5c1.4-0.886,3.033-1.54,4.9-1.96c1.866-0.42,3.826-0.63,5.88-0.63
			c0.653,0,1.33,0.035,2.03,0.105c0.7,0.07,1.365,0.164,1.995,0.28c0.63,0.117,1.178,0.222,1.645,0.315
			c0.466,0.094,0.793,0.164,0.98,0.21v-1.82c0-1.073-0.117-2.135-0.35-3.185c-0.234-1.05-0.654-1.983-1.26-2.8
			c-0.607-0.816-1.435-1.47-2.485-1.96c-1.05-0.49-2.415-0.735-4.095-0.735c-2.147,0-4.025,0.152-5.635,0.455
			c-1.61,0.304-2.812,0.619-3.605,0.945l-0.77-5.39c0.84-0.373,2.24-0.735,4.2-1.085C257.839,99.588,259.962,99.413,262.249,99.413z
			 M262.809,132.033c1.54,0,2.905-0.035,4.095-0.105c1.19-0.07,2.181-0.198,2.975-0.385v-10.85
			c-0.467-0.233-1.225-0.431-2.275-0.595c-1.05-0.163-2.322-0.245-3.815-0.245c-0.98,0-2.019,0.07-3.115,0.21
			c-1.097,0.14-2.1,0.432-3.01,0.875c-0.91,0.444-1.669,1.05-2.275,1.82c-0.607,0.77-0.91,1.785-0.91,3.045
			c0,2.334,0.746,3.955,2.24,4.865C258.212,131.578,260.242,132.033,262.809,132.033z"/>
		<path d="M290.248,93.743c-1.167,0-2.159-0.385-2.975-1.155c-0.817-0.77-1.225-1.808-1.225-3.115c0-1.306,0.408-2.345,1.225-3.115
			c0.816-0.77,1.808-1.155,2.975-1.155c1.166,0,2.158,0.385,2.975,1.155c0.816,0.77,1.225,1.809,1.225,3.115
			c0,1.307-0.408,2.345-1.225,3.115C292.406,93.358,291.414,93.743,290.248,93.743z M293.538,136.723h-6.509v-36.4h6.509V136.723z"
			/>
		<path d="M318.178,99.553c0.56,0,1.2,0.035,1.924,0.105s1.436,0.164,2.136,0.28c0.7,0.117,1.341,0.234,1.925,0.35
			c0.583,0.117,1.016,0.222,1.295,0.315l-1.119,5.67c-0.515-0.186-1.365-0.408-2.556-0.665c-1.19-0.256-2.72-0.385-4.585-0.385
			c-1.215,0-2.415,0.129-3.605,0.385c-1.189,0.257-1.972,0.432-2.345,0.525v30.59h-6.51v-34.86c1.54-0.56,3.452-1.085,5.739-1.575
			C312.764,99.798,315.331,99.553,318.178,99.553z"/>
	</g>
	<rect x="280.667" y="82" fill="#FFFFFF" width="21" height="14"/>
	<g>
		<path fill="#FFD960" d="M335.908,56.658c-0.014-0.761-0.461-1.447-1.151-1.771l-16.248-7.606l-2.945-17.697
			c-0.125-0.752-0.666-1.366-1.393-1.586c-0.729-0.22-1.52-0.008-2.041,0.548l-12.254,13.102l-17.743-2.668
			c-0.75-0.112-1.503,0.211-1.938,0.837c-0.433,0.625-0.477,1.441-0.107,2.108l8.673,15.705l-8.018,16.048
			c-0.342,0.68-0.264,1.495,0.193,2.102c0.461,0.606,1.226,0.899,1.972,0.756l17.618-3.397l12.782,12.586
			c0.236,0.23,0.521,0.396,0.826,0.488c0.397,0.12,0.829,0.117,1.236-0.024c0.72-0.25,1.232-0.888,1.327-1.643l0.831-6.683
			l0.682-5.494l0.7-5.625l15.921-8.269C335.506,58.122,335.923,57.42,335.908,56.658z"/>
		<g opacity="0.1">
			<path fill="#231F20" d="M284.918,75.607c-0.461-0.606-0.537-1.422-0.197-2.102l8.02-16.049l-8.675-15.704
				c-0.366-0.666-0.324-1.484,0.109-2.107c0.081-0.117,0.176-0.219,0.278-0.314l-2.319-0.348c-0.752-0.113-1.505,0.209-1.938,0.835
				c-0.435,0.625-0.477,1.441-0.109,2.109l8.675,15.704l-8.02,16.048c-0.34,0.68-0.264,1.495,0.193,2.102
				c0.461,0.607,1.226,0.899,1.974,0.756l2.49-0.481C285.217,75.935,285.054,75.786,284.918,75.607z"/>
		</g>
		<g>
			<path fill="#FFD960" stroke="#FFD960" stroke-width="3" stroke-miterlimit="10" d="M345.448,34.997
				c-0.432-0.13-0.809-0.422-1.034-0.847c-0.456-0.85-0.136-1.906,0.713-2.361l7.302-3.911c0.851-0.455,1.907-0.136,2.361,0.713
				s0.134,1.906-0.713,2.361l-7.302,3.912C346.35,35.092,345.874,35.126,345.448,34.997z"/>
			<path fill="#FFD960" stroke="#FFD960" stroke-width="3" stroke-miterlimit="10" d="M318.681,13.076
				c-0.923-0.279-1.443-1.254-1.166-2.174l2.398-7.93c0.278-0.923,1.252-1.444,2.173-1.165c0.923,0.278,1.443,1.251,1.166,2.173
				l-2.398,7.93C320.576,12.833,319.602,13.354,318.681,13.076z"/>
		</g>
	</g>
</g>
<g id="Calque_2">
	<g>
	</g>
	<g>
	</g>
	<g>
	</g>
	<g>
	</g>
	<g>
	</g>
	<g>
	</g>
	<g>
	</g>
	<g>
	</g>
	<g>
	</g>
	<g>
	</g>
	<g>
	</g>
	<g>
	</g>
	<g>
	</g>
	<g>
	</g>
	<g>
	</g>
</g>
</svg>
